<?xml version="1.0" encoding="utf-8"?>
<!-- Generator: Adobe Illustrator 28.1.0, SVG Export Plug-In . SVG Version: 6.00 Build 0)  -->
<svg version="1.1" id="Layer_1" xmlns="http://www.w3.org/2000/svg" xmlns:xlink="http://www.w3.org/1999/xlink" x="0px" y="0px"
	 viewBox="0 0 595.3 841.9" style="enable-background:new 0 0 595.3 841.9;" xml:space="preserve">
<style type="text/css">
	.st0{fill:#FFFFFF;}
</style>
<g>
	<g>
		<path class="st0" d="M255.7,354.3l-6.2,7.3c-0.7,0.8-1.6,1.2-2.4,0.4c-0.7-0.7-0.4-1.6,0.2-2.2l5.7-6.2l-5.1-6
			c-0.6-0.6-0.8-1.6-0.1-2.2c0.7-0.7,1.6-0.5,2.4,0.5l5.6,7.1v-6.4c0-0.9,0.4-1.6,1.4-1.6c1,0,1.4,0.7,1.4,1.6v6.5l5.6-7.1
			c0.8-1,1.6-1.2,2.3-0.6c0.7,0.6,0.4,1.5-0.1,2.1l-5,6l5.7,6.2c0.6,0.6,0.8,1.6,0.2,2.2c-0.7,0.7-1.7,0.6-2.3-0.3l-6.3-7.4v6.6
			c0,0.9-0.4,1.5-1.4,1.5c-1,0-1.4-0.7-1.4-1.5V354.3z"/>
		<path class="st0" d="M272.9,357.1l8.1-11.2c0.4-0.5,0.8-0.9,1.5-0.9c1,0,1.4,0.7,1.4,1.6v14.3c0,0.8-0.5,1.5-1.5,1.5
			c-1.1,0-1.5-0.7-1.5-1.5v-10.5l-8.2,11.2c-0.3,0.4-0.8,0.9-1.4,0.9c-0.9,0-1.4-0.6-1.4-1.5v-14.3c0-0.8,0.5-1.6,1.5-1.6
			c1,0,1.5,0.7,1.5,1.6V357.1z"/>
		<path class="st0" d="M288.7,356.9c-0.8,0-1.4-0.5-1.4-1.3c0-0.8,0.6-1.3,1.4-1.3h6.1c0.8,0,1.4,0.5,1.4,1.3c0,0.8-0.6,1.3-1.4,1.3
			H288.7z"/>
		<path class="st0" d="M319,360.8c0,0.9-0.5,1.6-1.6,1.6h-16.3c-1,0-1.5-0.7-1.5-1.5v-14.3c0-0.9,0.5-1.6,1.5-1.6
			c1,0,1.5,0.7,1.5,1.6v13.1h5.2v-13.1c0-0.9,0.5-1.6,1.5-1.6s1.5,0.7,1.5,1.6v13.1h5.2v-13.1c0-0.9,0.5-1.6,1.5-1.6
			c1,0,1.5,0.7,1.5,1.6V360.8z"/>
		<path class="st0" d="M326,357.1l8.1-11.2c0.4-0.5,0.8-0.9,1.5-0.9c1,0,1.4,0.7,1.4,1.6v14.3c0,0.8-0.5,1.5-1.5,1.5
			c-1.1,0-1.5-0.7-1.5-1.5v-10.5l-8.2,11.2c-0.3,0.4-0.8,0.9-1.4,0.9c-0.9,0-1.4-0.6-1.4-1.5v-14.3c0-0.8,0.5-1.6,1.5-1.6
			c1,0,1.5,0.7,1.5,1.6V357.1z"/>
	</g>
	<g>
		<g>
			<path class="st0" d="M251,320.7c-1.7,0-3.4-0.6-4.9-1.7c-3.4-2.7-4-7.7-1.3-11.1l16-20.4l-16-20.4c-2.7-3.4-2.1-8.4,1.3-11.1
				c3.4-2.7,8.4-2.1,11.1,1.3l19.8,25.3c2.3,2.9,2.3,6.9,0,9.8l-19.8,25.3C255.7,319.6,253.4,320.7,251,320.7z"/>
		</g>
		<g>
			<path class="st0" d="M334.2,320.7c-2.4,0-4.7-1-6.2-3l-19.8-25.3c-2.3-2.9-2.3-6.9,0-9.8l19.8-25.3c2.7-3.4,7.7-4,11.1-1.3
				c3.4,2.7,4,7.7,1.3,11.1l-16,20.4l16,20.4c2.7,3.4,2.1,8.4-1.3,11.1C337.6,320.1,335.9,320.7,334.2,320.7z"/>
		</g>
		<g>
			<path class="st0" d="M292.6,320.7c-4.4,0-7.9-3.6-7.9-7.9v-50.5c0-4.4,3.6-7.9,7.9-7.9s7.9,3.6,7.9,7.9v50.5
				C300.5,317.1,297,320.7,292.6,320.7z"/>
		</g>
	</g>
</g>
</svg>
