<?xml version="1.0" encoding="utf-8"?>
<!-- Generator: Adobe Illustrator 28.1.0, SVG Export Plug-In . SVG Version: 6.00 Build 0)  -->
<svg version="1.1" id="Layer_1" xmlns="http://www.w3.org/2000/svg" xmlns:xlink="http://www.w3.org/1999/xlink" x="0px" y="0px"
	 viewBox="0 0 595.3 841.9" style="enable-background:new 0 0 595.3 841.9;" xml:space="preserve">
<style type="text/css">
	.st0{fill:#FFA500;}
</style>
<g>
	<path class="st0" d="M281.4,377.9l-4.2,5c-0.5,0.6-1.1,0.8-1.7,0.3c-0.4-0.4-0.3-1.1,0.1-1.5l3.9-4.2l-3.5-4.1
		c-0.4-0.4-0.5-1.1-0.1-1.5c0.5-0.4,1.1-0.3,1.6,0.4l3.8,4.8v-4.4c0-0.6,0.3-1.1,1-1.1c0.7,0,1,0.5,1,1.1v4.4l3.8-4.9
		c0.5-0.7,1.1-0.8,1.6-0.4c0.4,0.4,0.3,1-0.1,1.4l-3.4,4.1l3.9,4.3c0.4,0.4,0.5,1.1,0.1,1.5c-0.5,0.5-1.1,0.4-1.6-0.2l-4.3-5.1v4.5
		c0,0.6-0.3,1.1-1,1.1c-0.7,0-1-0.5-1-1.1V377.9z"/>
	<path class="st0" d="M293.2,379.9l5.6-7.7c0.2-0.3,0.6-0.6,1-0.6c0.7,0,1,0.5,1,1.1v9.8c0,0.6-0.3,1.1-1,1.1
		c-0.7,0-1.1-0.5-1.1-1.1v-7.2l-5.6,7.7c-0.2,0.3-0.5,0.6-1,0.6c-0.6,0-1-0.4-1-1.1v-9.8c0-0.6,0.3-1.1,1-1.1c0.7,0,1,0.5,1,1.1
		V379.9z"/>
	<path class="st0" d="M304,379.8c-0.6,0-0.9-0.3-0.9-0.9c0-0.5,0.4-0.9,0.9-0.9h4.2c0.6,0,0.9,0.3,0.9,0.9c0,0.6-0.4,0.9-0.9,0.9
		H304z"/>
	<path class="st0" d="M324.8,382.4c0,0.6-0.3,1.1-1.1,1.1h-11.2c-0.7,0-1-0.4-1-1.1v-9.8c0-0.6,0.3-1.1,1-1.1c0.7,0,1.1,0.5,1.1,1.1
		v9h3.5v-9c0-0.6,0.3-1.1,1-1.1s1,0.5,1,1.1v9h3.6v-9c0-0.6,0.3-1.1,1-1.1c0.7,0,1,0.5,1,1.1V382.4z"/>
	<path class="st0" d="M329.6,379.9l5.6-7.7c0.2-0.3,0.6-0.6,1-0.6c0.7,0,1,0.5,1,1.1v9.8c0,0.6-0.3,1.1-1,1.1
		c-0.7,0-1.1-0.5-1.1-1.1v-7.2l-5.6,7.7c-0.2,0.3-0.5,0.6-1,0.6c-0.6,0-1-0.4-1-1.1v-9.8c0-0.6,0.3-1.1,1-1.1c0.7,0,1,0.5,1,1.1
		V379.9z"/>
</g>
<g>
	<g>
		<path class="st0" d="M225.5,390.6c-0.7,0-1.3-0.2-1.9-0.7c-1.3-1-1.6-3-0.5-4.3l6.2-7.9l-6.2-7.9c-1-1.3-0.8-3.3,0.5-4.3
			c1.3-1,3.3-0.8,4.3,0.5l7.7,9.8c0.9,1.1,0.9,2.7,0,3.8l-7.7,9.8C227.3,390.2,226.4,390.6,225.5,390.6z"/>
	</g>
	<g>
		<path class="st0" d="M257.7,390.6c-0.9,0-1.8-0.4-2.4-1.2l-7.7-9.8c-0.9-1.1-0.9-2.7,0-3.8l7.7-9.8c1-1.3,3-1.6,4.3-0.5
			c1.3,1,1.6,3,0.5,4.3l-6.2,7.9l6.2,7.9c1,1.3,0.8,3.3-0.5,4.3C259,390.4,258.3,390.6,257.7,390.6z"/>
	</g>
	<g>
		<path class="st0" d="M241.6,390.6c-1.7,0-3.1-1.4-3.1-3.1V368c0-1.7,1.4-3.1,3.1-3.1s3.1,1.4,3.1,3.1v19.6
			C244.6,389.3,243.3,390.6,241.6,390.6z"/>
	</g>
</g>
</svg>
